# xmcd
#
# Track frame offsets: 
#        150
#        8954
#        22858
#        36715
#        49235
#        60935
#        70217
#        81477
#        92746
#        103612
#        113700
#        125213
#        137945
#        147967
#        161580
#        172437
#        185244
#        197338
#        209292
#        220964
#        232289
#        243596
#        257471
#        271496
#        280370
#        291499
#        299628
#        313719
#        322569
#
# Disc length: 4472 seconds
#
# Revision: 0
# Processed by: cddbd v1.5.2PL0 Copyright (c) Steve Scherf et al.
# Submitted via: ExactAudioCopyFreeDBPlugin 1.0
#
DISCID=d511761d
DTITLE=Bo Diddley - Is a Gunslinger and Is a Lover
DYEAR=2012
DGENRE=Rock and Roll
TTITLE0=Gunslinger
TTITLE1=Ride On Josephine
TTITLE2=Doing The Crawdaddy
TTITLE3=Cadillac
TTITLE4=Somewhere
TTITLE5=Cheyanne
TTITLE6=Sixteen Tons
TTITLE7=Whoa Mule (Shine)
TTITLE8=No More Lovin'
TTITLE9=Diddling
TTITLE10=Working Man
TTITLE11=Do What I Say
TTITLE12=Not Guilty
TTITLE13=Hong Kong, Mississippi
TTITLE14=You're Looking Good
TTITLE15=Bo's Vacation
TTITLE16=Congo
TTITLE17=(Call Me) Bo's Blues
TTITLE18=Bo Diddley Is A Lover
TTITLE19=Aztec
TTITLE20=Back Home
TTITLE21=Bo Diddley Is Loose
TTITLE22=Love Is A Secret
TTITLE23=Quick Draw
TTITLE24=Scuttle Bug (Bonus Track)
TTITLE25=Travellin' West (Bonus Track)
TTITLE26=Say You Will (Bonus Track)
TTITLE27=Shank (Bonus Track)
TTITLE28=Lazy Woman (Bonus Track)
EXTD=
EXTT0=
EXTT1=
EXTT2=
EXTT3=
EXTT4=
EXTT5=
EXTT6=
EXTT7=
EXTT8=
EXTT9=
EXTT10=
EXTT11=
EXTT12=
EXTT13=
EXTT14=
EXTT15=
EXTT16=
EXTT17=
EXTT18=
EXTT19=
EXTT20=
EXTT21=
EXTT22=
EXTT23=
EXTT24=
EXTT25=
EXTT26=
EXTT27=
EXTT28=
PLAYORDER=
